<svg width="89" height="89" viewBox="0 0 89 89" fill="none" xmlns="http://www.w3.org/2000/svg">
<path d="M85.8925 35.9561C84.642 34.4549 83.0772 33.2464 81.3085 32.416C79.5399 31.5856 77.6105 31.1535 75.6566 31.1501H55.3628L57.855 24.7866C58.8917 22.0004 59.2369 19.0043 58.8611 16.0554C58.4853 13.1065 57.3997 10.2927 55.6974 7.85545C53.9951 5.4182 51.727 3.43024 49.0875 2.06207C46.448 0.693907 43.516 -0.0136144 40.543 0.000198431C39.6869 0.00198449 38.8495 0.250623 38.1312 0.716303C37.4129 1.18198 36.8442 1.84494 36.4932 2.62569L23.8096 31.1501H13.3512C9.81021 31.1501 6.41429 32.5566 3.91047 35.0602C1.40664 37.5639 0 40.9595 0 44.5001V75.65C0 79.1907 1.40664 82.5863 3.91047 85.0899C6.41429 87.5935 9.81021 89 13.3512 89H70.0046C73.1279 88.999 76.152 87.903 78.5508 85.9029C80.9495 83.9028 82.571 81.1251 83.1332 78.053L88.7852 46.9031C89.1348 44.9779 89.0569 42.9995 88.557 41.1078C88.0571 39.2161 87.1475 37.4573 85.8925 35.9561ZM22.2519 80.1H13.3512C12.1708 80.1 11.0389 79.6312 10.2043 78.7967C9.36965 77.9621 8.90077 76.8302 8.90077 75.65V44.5001C8.90077 43.3199 9.36965 42.188 10.2043 41.3535C11.0389 40.519 12.1708 40.0501 13.3512 40.0501H22.2519V80.1ZM80.107 45.3011L74.455 76.451C74.2654 77.4877 73.714 78.4234 72.8991 79.0917C72.0841 79.7599 71.0584 80.1172 70.0046 80.1H31.1527V36.5346L43.2578 9.30068C44.5038 9.66391 45.661 10.2815 46.6563 11.1144C47.6517 11.9474 48.4635 12.9776 49.0406 14.14C49.6177 15.3025 49.9475 16.5719 50.0092 17.8682C50.071 19.1646 49.8633 20.4596 49.3993 21.6717L47.0406 28.0351C46.538 29.3802 46.3683 30.8268 46.546 32.2516C46.7238 33.6765 47.2436 35.0371 48.0612 36.2175C48.8788 37.3979 49.9699 38.363 51.2413 39.0303C52.5128 39.6977 53.9268 40.0476 55.3628 40.0501H75.6566C76.3104 40.049 76.9564 40.192 77.5487 40.4689C78.141 40.7458 78.6649 41.1498 79.0834 41.6521C79.5121 42.1475 79.8261 42.7314 80.0031 43.3622C80.18 43.993 80.2155 44.655 80.107 45.3011Z" fill="#271111"/>
</svg>
